<?xml version="1.0" standalone="no"?><!-- Generator: Gravit.io --><svg xmlns="http://www.w3.org/2000/svg" xmlns:xlink="http://www.w3.org/1999/xlink" style="isolation:isolate" viewBox="136.625 282.784 312.758 57.915" width="312.758" height="57.915"><g><path d=" M 145.396 340.699 L 149.524 319.029 L 136.625 302.97 L 155.328 302.261 L 163.841 282.784 L 163.841 328.187 L 145.396 340.699 Z " fill="rgb(255,247,0)"/><path d=" M 182.286 340.699 L 178.159 319.029 L 191.057 302.97 L 172.354 302.261 L 163.841 282.784 L 163.841 328.187 L 182.286 340.699 Z " fill="rgb(255,247,0)"/><path d=" M 209.978 340.699 L 214.105 319.029 L 201.207 302.97 L 219.91 302.261 L 228.423 282.784 L 228.423 328.187 L 209.978 340.699 Z " fill="rgb(255,247,0)"/><path d=" M 246.868 340.699 L 242.74 319.029 L 255.639 302.97 L 236.936 302.261 L 228.423 282.784 L 228.423 328.187 L 246.868 340.699 Z " fill="rgb(255,247,0)"/><path d=" M 274.559 340.699 L 278.687 319.029 L 265.788 302.97 L 284.491 302.261 L 293.004 282.784 L 293.004 328.187 L 274.559 340.699 Z " fill="rgb(200,200,180)"/><path d=" M 311.449 340.699 L 307.322 319.029 L 320.22 302.97 L 301.517 302.261 L 293.004 282.784 L 293.004 328.187 L 311.449 340.699 Z " fill="rgb(200,200,180)"/><path d=" M 339.141 340.699 L 343.268 319.029 L 330.37 302.97 L 349.072 302.261 L 357.586 282.784 L 357.586 328.187 L 339.141 340.699 Z " fill="rgb(200,200,180)"/><path d=" M 376.031 340.699 L 371.903 319.029 L 384.802 302.97 L 366.099 302.261 L 357.586 282.784 L 357.586 328.187 L 376.031 340.699 Z " fill="rgb(200,200,180)"/><path d=" M 403.722 340.699 L 407.85 319.029 L 394.951 302.97 L 413.654 302.261 L 422.167 282.784 L 422.167 328.187 L 403.722 340.699 Z " fill="rgb(200,200,180)"/><path d=" M 440.612 340.699 L 436.484 319.029 L 449.383 302.97 L 430.68 302.261 L 422.167 282.784 L 422.167 328.187 L 440.612 340.699 Z " fill="rgb(200,200,180)"/></g></svg>