<?xml version="1.0" standalone="no"?><!-- Generator: Gravit.io --><svg xmlns="http://www.w3.org/2000/svg" xmlns:xlink="http://www.w3.org/1999/xlink" style="isolation:isolate" viewBox="0 0 312.758 57.915" width="312.758" height="57.915"><defs><clipPath id="_clipPath_luDg1i8fMKW9Ogdyjml6nu6rXwoLTyRw"><rect width="312.758" height="57.915"/></clipPath></defs><g clip-path="url(#_clipPath_luDg1i8fMKW9Ogdyjml6nu6rXwoLTyRw)"><path d=" M 8.771 57.914 L 12.899 36.245 L 0 20.186 L 18.703 19.477 L 27.216 0 L 27.216 45.403 L 8.771 57.914 Z " fill="rgb(200,200,180)"/><path d=" M 45.661 57.914 L 41.534 36.245 L 54.432 20.186 L 35.729 19.477 L 27.216 0 L 27.216 45.403 L 45.661 57.914 Z " fill="rgb(200,200,180)"/><path d=" M 73.353 57.914 L 77.48 36.245 L 64.582 20.186 L 83.285 19.477 L 91.798 0 L 91.798 45.403 L 73.353 57.914 Z " fill="rgb(200,200,180)"/><path d=" M 110.243 57.914 L 106.115 36.245 L 119.014 20.186 L 100.311 19.477 L 91.798 0 L 91.798 45.403 L 110.243 57.914 Z " fill="rgb(200,200,180)"/><path d=" M 137.934 57.914 L 142.062 36.245 L 129.163 20.186 L 147.866 19.477 L 156.379 0 L 156.379 45.403 L 137.934 57.914 Z " fill="rgb(200,200,180)"/><path d=" M 174.824 57.914 L 170.697 36.245 L 183.595 20.186 L 164.892 19.477 L 156.379 0 L 156.379 45.403 L 174.824 57.914 Z " fill="rgb(200,200,180)"/><path d=" M 202.516 57.914 L 206.643 36.245 L 193.745 20.186 L 212.447 19.477 L 220.961 0 L 220.961 45.403 L 202.516 57.914 Z " fill="rgb(200,200,180)"/><path d=" M 239.406 57.914 L 235.278 36.245 L 248.177 20.186 L 229.474 19.477 L 220.961 0 L 220.961 45.403 L 239.406 57.914 Z " fill="rgb(200,200,180)"/><path d=" M 267.097 57.914 L 271.225 36.245 L 258.326 20.186 L 277.029 19.477 L 285.542 0 L 285.542 45.403 L 267.097 57.914 Z " fill="rgb(200,200,180)"/><path d=" M 303.987 57.914 L 299.859 36.245 L 312.758 20.186 L 294.055 19.477 L 285.542 0 L 285.542 45.403 L 303.987 57.914 Z " fill="rgb(200,200,180)"/></g></svg>