<?xml version="1.0" standalone="no"?><!-- Generator: Gravit.io --><svg xmlns="http://www.w3.org/2000/svg" xmlns:xlink="http://www.w3.org/1999/xlink" style="isolation:isolate" viewBox="136.625 207.181 312.758 57.915" width="312.758" height="57.915"><g><path d=" M 145.396 265.096 L 149.524 243.426 L 136.625 227.367 L 155.328 226.658 L 163.841 207.181 L 163.841 252.584 L 145.396 265.096 Z " fill="rgb(255,247,0)"/><path d=" M 182.286 265.096 L 178.159 243.426 L 191.057 227.367 L 172.354 226.658 L 163.841 207.181 L 163.841 252.584 L 182.286 265.096 Z " fill="rgb(255,247,0)"/><path d=" M 209.978 265.096 L 214.105 243.426 L 201.207 227.367 L 219.91 226.658 L 228.423 207.181 L 228.423 252.584 L 209.978 265.096 Z " fill="rgb(255,247,0)"/><path d=" M 246.868 265.096 L 242.74 243.426 L 255.639 227.367 L 236.936 226.658 L 228.423 207.181 L 228.423 252.584 L 246.868 265.096 Z " fill="rgb(200,200,180)"/><path d=" M 274.559 265.096 L 278.687 243.426 L 265.788 227.367 L 284.491 226.658 L 293.004 207.181 L 293.004 252.584 L 274.559 265.096 Z " fill="rgb(200,200,180)"/><path d=" M 311.449 265.096 L 307.322 243.426 L 320.22 227.367 L 301.517 226.658 L 293.004 207.181 L 293.004 252.584 L 311.449 265.096 Z " fill="rgb(200,200,180)"/><path d=" M 339.141 265.096 L 343.268 243.426 L 330.37 227.367 L 349.072 226.658 L 357.586 207.181 L 357.586 252.584 L 339.141 265.096 Z " fill="rgb(200,200,180)"/><path d=" M 376.031 265.096 L 371.903 243.426 L 384.802 227.367 L 366.099 226.658 L 357.586 207.181 L 357.586 252.584 L 376.031 265.096 Z " fill="rgb(200,200,180)"/><path d=" M 403.722 265.096 L 407.85 243.426 L 394.951 227.367 L 413.654 226.658 L 422.167 207.181 L 422.167 252.584 L 403.722 265.096 Z " fill="rgb(200,200,180)"/><path d=" M 440.612 265.096 L 436.484 243.426 L 449.383 227.367 L 430.68 226.658 L 422.167 207.181 L 422.167 252.584 L 440.612 265.096 Z " fill="rgb(200,200,180)"/></g></svg>