<?xml version="1.0" standalone="no"?><!-- Generator: Gravit.io --><svg xmlns="http://www.w3.org/2000/svg" xmlns:xlink="http://www.w3.org/1999/xlink" style="isolation:isolate" viewBox="136.625 509.593 312.758 57.915" width="312.758" height="57.915"><g><path d=" M 145.396 567.508 L 149.524 545.838 L 136.625 529.78 L 155.328 529.07 L 163.841 509.593 L 163.841 554.996 L 145.396 567.508 Z " fill="rgb(255,247,0)"/><path d=" M 182.286 567.508 L 178.159 545.838 L 191.057 529.78 L 172.354 529.07 L 163.841 509.593 L 163.841 554.996 L 182.286 567.508 Z " fill="rgb(255,247,0)"/><path d=" M 209.978 567.508 L 214.105 545.838 L 201.207 529.78 L 219.91 529.07 L 228.423 509.593 L 228.423 554.996 L 209.978 567.508 Z " fill="rgb(255,247,0)"/><path d=" M 246.868 567.508 L 242.74 545.838 L 255.639 529.78 L 236.936 529.07 L 228.423 509.593 L 228.423 554.996 L 246.868 567.508 Z " fill="rgb(255,247,0)"/><path d=" M 274.559 567.508 L 278.687 545.838 L 265.788 529.78 L 284.491 529.07 L 293.004 509.593 L 293.004 554.996 L 274.559 567.508 Z " fill="rgb(255,247,0)"/><path d=" M 311.449 567.508 L 307.322 545.838 L 320.22 529.78 L 301.517 529.07 L 293.004 509.593 L 293.004 554.996 L 311.449 567.508 Z " fill="rgb(255,247,0)"/><path d=" M 339.141 567.508 L 343.268 545.838 L 330.37 529.78 L 349.072 529.07 L 357.586 509.593 L 357.586 554.996 L 339.141 567.508 Z " fill="rgb(255,247,0)"/><path d=" M 376.031 567.508 L 371.903 545.838 L 384.802 529.78 L 366.099 529.07 L 357.586 509.593 L 357.586 554.996 L 376.031 567.508 Z " fill="rgb(200,200,180)"/><path d=" M 403.722 567.508 L 407.85 545.838 L 394.951 529.78 L 413.654 529.07 L 422.167 509.593 L 422.167 554.996 L 403.722 567.508 Z " fill="rgb(200,200,180)"/><path d=" M 440.612 567.508 L 436.484 545.838 L 449.383 529.78 L 430.68 529.07 L 422.167 509.593 L 422.167 554.996 L 440.612 567.508 Z " fill="rgb(200,200,180)"/></g></svg>