<?xml version="1.0" standalone="no"?><!-- Generator: Gravit.io --><svg xmlns="http://www.w3.org/2000/svg" xmlns:xlink="http://www.w3.org/1999/xlink" style="isolation:isolate" viewBox="136.625 660.799 312.758 57.915" width="312.758" height="57.915"><g><path d=" M 145.396 718.714 L 149.524 697.044 L 136.625 680.986 L 155.328 680.276 L 163.841 660.799 L 163.841 706.202 L 145.396 718.714 Z " fill="rgb(255,247,0)"/><path d=" M 182.286 718.714 L 178.159 697.044 L 191.057 680.986 L 172.354 680.276 L 163.841 660.799 L 163.841 706.202 L 182.286 718.714 Z " fill="rgb(255,247,0)"/><path d=" M 209.978 718.714 L 214.105 697.044 L 201.207 680.986 L 219.91 680.276 L 228.423 660.799 L 228.423 706.202 L 209.978 718.714 Z " fill="rgb(255,247,0)"/><path d=" M 246.868 718.714 L 242.74 697.044 L 255.639 680.986 L 236.936 680.276 L 228.423 660.799 L 228.423 706.202 L 246.868 718.714 Z " fill="rgb(255,247,0)"/><path d=" M 274.559 718.714 L 278.687 697.044 L 265.788 680.986 L 284.491 680.276 L 293.004 660.799 L 293.004 706.202 L 274.559 718.714 Z " fill="rgb(255,247,0)"/><path d=" M 311.449 718.714 L 307.322 697.044 L 320.22 680.986 L 301.517 680.276 L 293.004 660.799 L 293.004 706.202 L 311.449 718.714 Z " fill="rgb(255,247,0)"/><path d=" M 339.141 718.714 L 343.268 697.044 L 330.37 680.986 L 349.072 680.276 L 357.586 660.799 L 357.586 706.202 L 339.141 718.714 Z " fill="rgb(255,247,0)"/><path d=" M 376.031 718.714 L 371.903 697.044 L 384.802 680.986 L 366.099 680.276 L 357.586 660.799 L 357.586 706.202 L 376.031 718.714 Z " fill="rgb(255,247,0)"/><path d=" M 403.722 718.714 L 407.85 697.044 L 394.951 680.986 L 413.654 680.276 L 422.167 660.799 L 422.167 706.202 L 403.722 718.714 Z " fill="rgb(255,247,0)"/><path d=" M 440.612 718.714 L 436.484 697.044 L 449.383 680.986 L 430.68 680.276 L 422.167 660.799 L 422.167 706.202 L 440.612 718.714 Z " fill="rgb(200,200,180)"/></g></svg>