<?xml version="1.0" standalone="no"?><!-- Generator: Gravit.io --><svg xmlns="http://www.w3.org/2000/svg" xmlns:xlink="http://www.w3.org/1999/xlink" style="isolation:isolate" viewBox="136.625 55.975 312.758 57.915" width="312.758" height="57.915"><g><path d=" M 145.396 113.889 L 149.524 92.22 L 136.625 76.161 L 155.328 75.452 L 163.841 55.975 L 163.841 101.378 L 145.396 113.889 Z " fill="rgb(255,247,0)"/><path d=" M 182.286 113.889 L 178.159 92.22 L 191.057 76.161 L 172.354 75.452 L 163.841 55.975 L 163.841 101.378 L 182.286 113.889 Z " fill="rgb(200,200,180)"/><path d=" M 209.978 113.889 L 214.105 92.22 L 201.207 76.161 L 219.91 75.452 L 228.423 55.975 L 228.423 101.378 L 209.978 113.889 Z " fill="rgb(200,200,180)"/><path d=" M 246.868 113.889 L 242.74 92.22 L 255.639 76.161 L 236.936 75.452 L 228.423 55.975 L 228.423 101.378 L 246.868 113.889 Z " fill="rgb(200,200,180)"/><path d=" M 274.559 113.889 L 278.687 92.22 L 265.788 76.161 L 284.491 75.452 L 293.004 55.975 L 293.004 101.378 L 274.559 113.889 Z " fill="rgb(200,200,180)"/><path d=" M 311.449 113.889 L 307.322 92.22 L 320.22 76.161 L 301.517 75.452 L 293.004 55.975 L 293.004 101.378 L 311.449 113.889 Z " fill="rgb(200,200,180)"/><path d=" M 339.141 113.889 L 343.268 92.22 L 330.37 76.161 L 349.072 75.452 L 357.586 55.975 L 357.586 101.378 L 339.141 113.889 Z " fill="rgb(200,200,180)"/><path d=" M 376.031 113.889 L 371.903 92.22 L 384.802 76.161 L 366.099 75.452 L 357.586 55.975 L 357.586 101.378 L 376.031 113.889 Z " fill="rgb(200,200,180)"/><path d=" M 403.722 113.889 L 407.85 92.22 L 394.951 76.161 L 413.654 75.452 L 422.167 55.975 L 422.167 101.378 L 403.722 113.889 Z " fill="rgb(200,200,180)"/><path d=" M 440.612 113.889 L 436.484 92.22 L 449.383 76.161 L 430.68 75.452 L 422.167 55.975 L 422.167 101.378 L 440.612 113.889 Z " fill="rgb(200,200,180)"/></g></svg>