<?xml version="1.0" standalone="no"?><!-- Generator: Gravit.io --><svg xmlns="http://www.w3.org/2000/svg" xmlns:xlink="http://www.w3.org/1999/xlink" style="isolation:isolate" viewBox="136.625 736.403 312.758 57.915" width="312.758" height="57.915"><g><path d=" M 145.396 794.317 L 149.524 772.648 L 136.625 756.589 L 155.328 755.879 L 163.841 736.403 L 163.841 781.806 L 145.396 794.317 Z " fill="rgb(255,247,0)"/><path d=" M 182.286 794.317 L 178.159 772.648 L 191.057 756.589 L 172.354 755.879 L 163.841 736.403 L 163.841 781.806 L 182.286 794.317 Z " fill="rgb(255,247,0)"/><path d=" M 209.978 794.317 L 214.105 772.648 L 201.207 756.589 L 219.91 755.879 L 228.423 736.403 L 228.423 781.806 L 209.978 794.317 Z " fill="rgb(255,247,0)"/><path d=" M 246.868 794.317 L 242.74 772.648 L 255.639 756.589 L 236.936 755.879 L 228.423 736.403 L 228.423 781.806 L 246.868 794.317 Z " fill="rgb(255,247,0)"/><path d=" M 274.559 794.317 L 278.687 772.648 L 265.788 756.589 L 284.491 755.879 L 293.004 736.403 L 293.004 781.806 L 274.559 794.317 Z " fill="rgb(255,247,0)"/><path d=" M 311.449 794.317 L 307.322 772.648 L 320.22 756.589 L 301.517 755.879 L 293.004 736.403 L 293.004 781.806 L 311.449 794.317 Z " fill="rgb(255,247,0)"/><path d=" M 339.141 794.317 L 343.268 772.648 L 330.37 756.589 L 349.072 755.879 L 357.586 736.403 L 357.586 781.806 L 339.141 794.317 Z " fill="rgb(255,247,0)"/><path d=" M 376.031 794.317 L 371.903 772.648 L 384.802 756.589 L 366.099 755.879 L 357.586 736.403 L 357.586 781.806 L 376.031 794.317 Z " fill="rgb(255,247,0)"/><path d=" M 403.722 794.317 L 407.85 772.648 L 394.951 756.589 L 413.654 755.879 L 422.167 736.403 L 422.167 781.806 L 403.722 794.317 Z " fill="rgb(255,247,0)"/><path d=" M 440.612 794.317 L 436.484 772.648 L 449.383 756.589 L 430.68 755.879 L 422.167 736.403 L 422.167 781.806 L 440.612 794.317 Z " fill="rgb(255,247,0)"/></g></svg>