<?xml version="1.0" standalone="no"?><!-- Generator: Gravit.io --><svg xmlns="http://www.w3.org/2000/svg" xmlns:xlink="http://www.w3.org/1999/xlink" style="isolation:isolate" viewBox="136.625 131.578 312.758 57.915" width="312.758" height="57.915"><g><path d=" M 145.396 189.493 L 149.524 167.823 L 136.625 151.764 L 155.328 151.055 L 163.841 131.578 L 163.841 176.981 L 145.396 189.493 Z " fill="rgb(255,247,0)"/><path d=" M 182.286 189.493 L 178.159 167.823 L 191.057 151.764 L 172.354 151.055 L 163.841 131.578 L 163.841 176.981 L 182.286 189.493 Z " fill="rgb(255,247,0)"/><path d=" M 209.978 189.493 L 214.105 167.823 L 201.207 151.764 L 219.91 151.055 L 228.423 131.578 L 228.423 176.981 L 209.978 189.493 Z " fill="rgb(200,200,180)"/><path d=" M 246.868 189.493 L 242.74 167.823 L 255.639 151.764 L 236.936 151.055 L 228.423 131.578 L 228.423 176.981 L 246.868 189.493 Z " fill="rgb(200,200,180)"/><path d=" M 274.559 189.493 L 278.687 167.823 L 265.788 151.764 L 284.491 151.055 L 293.004 131.578 L 293.004 176.981 L 274.559 189.493 Z " fill="rgb(200,200,180)"/><path d=" M 311.449 189.493 L 307.322 167.823 L 320.22 151.764 L 301.517 151.055 L 293.004 131.578 L 293.004 176.981 L 311.449 189.493 Z " fill="rgb(200,200,180)"/><path d=" M 339.141 189.493 L 343.268 167.823 L 330.37 151.764 L 349.072 151.055 L 357.586 131.578 L 357.586 176.981 L 339.141 189.493 Z " fill="rgb(200,200,180)"/><path d=" M 376.031 189.493 L 371.903 167.823 L 384.802 151.764 L 366.099 151.055 L 357.586 131.578 L 357.586 176.981 L 376.031 189.493 Z " fill="rgb(200,200,180)"/><path d=" M 403.722 189.493 L 407.85 167.823 L 394.951 151.764 L 413.654 151.055 L 422.167 131.578 L 422.167 176.981 L 403.722 189.493 Z " fill="rgb(200,200,180)"/><path d=" M 440.612 189.493 L 436.484 167.823 L 449.383 151.764 L 430.68 151.055 L 422.167 131.578 L 422.167 176.981 L 440.612 189.493 Z " fill="rgb(200,200,180)"/></g></svg>