<?xml version="1.0" standalone="no"?><!-- Generator: Gravit.io --><svg xmlns="http://www.w3.org/2000/svg" xmlns:xlink="http://www.w3.org/1999/xlink" style="isolation:isolate" viewBox="136.625 358.387 312.758 57.915" width="312.758" height="57.915"><g><path d=" M 145.396 416.302 L 149.524 394.632 L 136.625 378.573 L 155.328 377.864 L 163.841 358.387 L 163.841 403.79 L 145.396 416.302 Z " fill="rgb(255,247,0)"/><path d=" M 182.286 416.302 L 178.159 394.632 L 191.057 378.573 L 172.354 377.864 L 163.841 358.387 L 163.841 403.79 L 182.286 416.302 Z " fill="rgb(255,247,0)"/><path d=" M 209.978 416.302 L 214.105 394.632 L 201.207 378.573 L 219.91 377.864 L 228.423 358.387 L 228.423 403.79 L 209.978 416.302 Z " fill="rgb(255,247,0)"/><path d=" M 246.868 416.302 L 242.74 394.632 L 255.639 378.573 L 236.936 377.864 L 228.423 358.387 L 228.423 403.79 L 246.868 416.302 Z " fill="rgb(255,247,0)"/><path d=" M 274.559 416.302 L 278.687 394.632 L 265.788 378.573 L 284.491 377.864 L 293.004 358.387 L 293.004 403.79 L 274.559 416.302 Z " fill="rgb(255,247,0)"/><path d=" M 311.449 416.302 L 307.322 394.632 L 320.22 378.573 L 301.517 377.864 L 293.004 358.387 L 293.004 403.79 L 311.449 416.302 Z " fill="rgb(200,200,180)"/><path d=" M 339.141 416.302 L 343.268 394.632 L 330.37 378.573 L 349.072 377.864 L 357.586 358.387 L 357.586 403.79 L 339.141 416.302 Z " fill="rgb(200,200,180)"/><path d=" M 376.031 416.302 L 371.903 394.632 L 384.802 378.573 L 366.099 377.864 L 357.586 358.387 L 357.586 403.79 L 376.031 416.302 Z " fill="rgb(200,200,180)"/><path d=" M 403.722 416.302 L 407.85 394.632 L 394.951 378.573 L 413.654 377.864 L 422.167 358.387 L 422.167 403.79 L 403.722 416.302 Z " fill="rgb(200,200,180)"/><path d=" M 440.612 416.302 L 436.484 394.632 L 449.383 378.573 L 430.68 377.864 L 422.167 358.387 L 422.167 403.79 L 440.612 416.302 Z " fill="rgb(200,200,180)"/></g></svg>