<?xml version="1.0" standalone="no"?><!-- Generator: Gravit.io --><svg xmlns="http://www.w3.org/2000/svg" xmlns:xlink="http://www.w3.org/1999/xlink" style="isolation:isolate" viewBox="136.625 433.99 312.758 57.915" width="312.758" height="57.915"><g><path d=" M 145.396 491.905 L 149.524 470.235 L 136.625 454.176 L 155.328 453.467 L 163.841 433.99 L 163.841 479.393 L 145.396 491.905 Z " fill="rgb(255,247,0)"/><path d=" M 182.286 491.905 L 178.159 470.235 L 191.057 454.176 L 172.354 453.467 L 163.841 433.99 L 163.841 479.393 L 182.286 491.905 Z " fill="rgb(255,247,0)"/><path d=" M 209.978 491.905 L 214.105 470.235 L 201.207 454.176 L 219.91 453.467 L 228.423 433.99 L 228.423 479.393 L 209.978 491.905 Z " fill="rgb(255,247,0)"/><path d=" M 246.868 491.905 L 242.74 470.235 L 255.639 454.176 L 236.936 453.467 L 228.423 433.99 L 228.423 479.393 L 246.868 491.905 Z " fill="rgb(255,247,0)"/><path d=" M 274.559 491.905 L 278.687 470.235 L 265.788 454.176 L 284.491 453.467 L 293.004 433.99 L 293.004 479.393 L 274.559 491.905 Z " fill="rgb(255,247,0)"/><path d=" M 311.449 491.905 L 307.322 470.235 L 320.22 454.176 L 301.517 453.467 L 293.004 433.99 L 293.004 479.393 L 311.449 491.905 Z " fill="rgb(255,247,0)"/><path d=" M 339.141 491.905 L 343.268 470.235 L 330.37 454.176 L 349.072 453.467 L 357.586 433.99 L 357.586 479.393 L 339.141 491.905 Z " fill="rgb(200,200,180)"/><path d=" M 376.031 491.905 L 371.903 470.235 L 384.802 454.176 L 366.099 453.467 L 357.586 433.99 L 357.586 479.393 L 376.031 491.905 Z " fill="rgb(200,200,180)"/><path d=" M 403.722 491.905 L 407.85 470.235 L 394.951 454.176 L 413.654 453.467 L 422.167 433.99 L 422.167 479.393 L 403.722 491.905 Z " fill="rgb(200,200,180)"/><path d=" M 440.612 491.905 L 436.484 470.235 L 449.383 454.176 L 430.68 453.467 L 422.167 433.99 L 422.167 479.393 L 440.612 491.905 Z " fill="rgb(200,200,180)"/></g></svg>