<?xml version="1.0" standalone="no"?><!-- Generator: Gravit.io --><svg xmlns="http://www.w3.org/2000/svg" xmlns:xlink="http://www.w3.org/1999/xlink" style="isolation:isolate" viewBox="136.625 585.196 312.758 57.915" width="312.758" height="57.915"><g><path d=" M 145.396 643.111 L 149.524 621.441 L 136.625 605.383 L 155.328 604.673 L 163.841 585.196 L 163.841 630.599 L 145.396 643.111 Z " fill="rgb(255,247,0)"/><path d=" M 182.286 643.111 L 178.159 621.441 L 191.057 605.383 L 172.354 604.673 L 163.841 585.196 L 163.841 630.599 L 182.286 643.111 Z " fill="rgb(255,247,0)"/><path d=" M 209.978 643.111 L 214.105 621.441 L 201.207 605.383 L 219.91 604.673 L 228.423 585.196 L 228.423 630.599 L 209.978 643.111 Z " fill="rgb(255,247,0)"/><path d=" M 246.868 643.111 L 242.74 621.441 L 255.639 605.383 L 236.936 604.673 L 228.423 585.196 L 228.423 630.599 L 246.868 643.111 Z " fill="rgb(255,247,0)"/><path d=" M 274.559 643.111 L 278.687 621.441 L 265.788 605.383 L 284.491 604.673 L 293.004 585.196 L 293.004 630.599 L 274.559 643.111 Z " fill="rgb(255,247,0)"/><path d=" M 311.449 643.111 L 307.322 621.441 L 320.22 605.383 L 301.517 604.673 L 293.004 585.196 L 293.004 630.599 L 311.449 643.111 Z " fill="rgb(255,247,0)"/><path d=" M 339.141 643.111 L 343.268 621.441 L 330.37 605.383 L 349.072 604.673 L 357.586 585.196 L 357.586 630.599 L 339.141 643.111 Z " fill="rgb(255,247,0)"/><path d=" M 376.031 643.111 L 371.903 621.441 L 384.802 605.383 L 366.099 604.673 L 357.586 585.196 L 357.586 630.599 L 376.031 643.111 Z " fill="rgb(255,247,0)"/><path d=" M 403.722 643.111 L 407.85 621.441 L 394.951 605.383 L 413.654 604.673 L 422.167 585.196 L 422.167 630.599 L 403.722 643.111 Z " fill="rgb(200,200,180)"/><path d=" M 440.612 643.111 L 436.484 621.441 L 449.383 605.383 L 430.68 604.673 L 422.167 585.196 L 422.167 630.599 L 440.612 643.111 Z " fill="rgb(200,200,180)"/></g></svg>